<svg id="visual" viewBox="0 0 900 300" width="900" height="300" xmlns="http://www.w3.org/2000/svg" xmlns:xlink="http://www.w3.org/1999/xlink" version="1.1"><rect x="0" y="0" width="900" height="300" fill="#ff0066"></rect><path d="M0 54L11.5 72.3C23 90.7 46 127.3 69 141C92 154.7 115 145.3 138.2 138.2C161.3 131 184.7 126 207.8 111.8C231 97.7 254 74.3 277 73.5C300 72.7 323 94.3 346 104.5C369 114.7 392 113.3 415.2 103C438.3 92.7 461.7 73.3 484.8 63.5C508 53.7 531 53.3 554 63.5C577 73.7 600 94.3 623 111.2C646 128 669 141 692.2 139.2C715.3 137.3 738.7 120.7 761.8 109C785 97.3 808 90.7 831 85.2C854 79.7 877 75.3 888.5 73.2L900 71L900 301L888.5 301C877 301 854 301 831 301C808 301 785 301 761.8 301C738.7 301 715.3 301 692.2 301C669 301 646 301 623 301C600 301 577 301 554 301C531 301 508 301 484.8 301C461.7 301 438.3 301 415.2 301C392 301 369 301 346 301C323 301 300 301 277 301C254 301 231 301 207.8 301C184.7 301 161.3 301 138.2 301C115 301 92 301 69 301C46 301 23 301 11.5 301L0 301Z" fill="#d939a6"></path><path d="M0 82L11.5 104.7C23 127.3 46 172.7 69 191C92 209.3 115 200.7 138.2 181.7C161.3 162.7 184.7 133.3 207.8 124.3C231 115.3 254 126.7 277 128.8C300 131 323 124 346 129.3C369 134.7 392 152.3 415.2 167.2C438.3 182 461.7 194 484.8 197.5C508 201 531 196 554 192.7C577 189.3 600 187.7 623 177.5C646 167.3 669 148.7 692.2 146.8C715.3 145 738.7 160 761.8 160.3C785 160.7 808 146.3 831 149C854 151.7 877 171.3 888.5 181.2L900 191L900 301L888.5 301C877 301 854 301 831 301C808 301 785 301 761.8 301C738.7 301 715.3 301 692.2 301C669 301 646 301 623 301C600 301 577 301 554 301C531 301 508 301 484.8 301C461.7 301 438.3 301 415.2 301C392 301 369 301 346 301C323 301 300 301 277 301C254 301 231 301 207.8 301C184.7 301 161.3 301 138.2 301C115 301 92 301 69 301C46 301 23 301 11.5 301L0 301Z" fill="#7f4698"></path><path d="M0 253L11.5 251.2C23 249.3 46 245.7 69 237.3C92 229 115 216 138.2 204.3C161.3 192.7 184.7 182.3 207.8 185C231 187.7 254 203.3 277 201C300 198.7 323 178.3 346 172C369 165.7 392 173.3 415.2 170C438.3 166.7 461.7 152.3 484.8 161.2C508 170 531 202 554 213.5C577 225 600 216 623 202.8C646 189.7 669 172.3 692.2 170.5C715.3 168.7 738.7 182.3 761.8 196C785 209.7 808 223.3 831 225.3C854 227.3 877 217.7 888.5 212.8L900 208L900 301L888.5 301C877 301 854 301 831 301C808 301 785 301 761.8 301C738.7 301 715.3 301 692.2 301C669 301 646 301 623 301C600 301 577 301 554 301C531 301 508 301 484.8 301C461.7 301 438.3 301 415.2 301C392 301 369 301 346 301C323 301 300 301 277 301C254 301 231 301 207.8 301C184.7 301 161.3 301 138.2 301C115 301 92 301 69 301C46 301 23 301 11.5 301L0 301Z" fill="#393d6c"></path><path d="M0 253L11.5 258.5C23 264 46 275 69 270C92 265 115 244 138.2 237.5C161.3 231 184.7 239 207.8 237.7C231 236.3 254 225.7 277 225.2C300 224.7 323 234.3 346 240.8C369 247.3 392 250.7 415.2 248.7C438.3 246.7 461.7 239.3 484.8 244.3C508 249.3 531 266.7 554 262.2C577 257.7 600 231.3 623 222C646 212.7 669 220.3 692.2 227.8C715.3 235.3 738.7 242.7 761.8 248.8C785 255 808 260 831 252.5C854 245 877 225 888.5 215L900 205L900 301L888.5 301C877 301 854 301 831 301C808 301 785 301 761.8 301C738.7 301 715.3 301 692.2 301C669 301 646 301 623 301C600 301 577 301 554 301C531 301 508 301 484.8 301C461.7 301 438.3 301 415.2 301C392 301 369 301 346 301C323 301 300 301 277 301C254 301 231 301 207.8 301C184.7 301 161.3 301 138.2 301C115 301 92 301 69 301C46 301 23 301 11.5 301L0 301Z" fill="#202731"></path></svg>