<svg id="visual" viewBox="0 0 900 200" width="900" height="200" xmlns="http://www.w3.org/2000/svg" xmlns:xlink="http://www.w3.org/1999/xlink" version="1.1"><rect x="0" y="0" width="900" height="200" fill="#202731"></rect><path d="M0 74L9.3 72.8C18.7 71.7 37.3 69.3 56.2 77.2C75 85 94 103 112.8 112C131.7 121 150.3 121 169 113.3C187.7 105.7 206.3 90.3 225 82.3C243.7 74.3 262.3 73.7 281.2 77.7C300 81.7 319 90.3 337.8 87.5C356.7 84.7 375.3 70.3 394 77.3C412.7 84.3 431.3 112.7 450 125C468.7 137.3 487.3 133.7 506.2 134C525 134.3 544 138.7 562.8 132.8C581.7 127 600.3 111 619 97.3C637.7 83.7 656.3 72.3 675 80.3C693.7 88.3 712.3 115.7 731.2 119.5C750 123.3 769 103.7 787.8 95C806.7 86.3 825.3 88.7 844 92.7C862.7 96.7 881.3 102.3 890.7 105.2L900 108L900 0L890.7 0C881.3 0 862.7 0 844 0C825.3 0 806.7 0 787.8 0C769 0 750 0 731.2 0C712.3 0 693.7 0 675 0C656.3 0 637.7 0 619 0C600.3 0 581.7 0 562.8 0C544 0 525 0 506.2 0C487.3 0 468.7 0 450 0C431.3 0 412.7 0 394 0C375.3 0 356.7 0 337.8 0C319 0 300 0 281.2 0C262.3 0 243.7 0 225 0C206.3 0 187.7 0 169 0C150.3 0 131.7 0 112.8 0C94 0 75 0 56.2 0C37.3 0 18.7 0 9.3 0L0 0Z" fill="#7d342d"></path><path d="M0 124L9.3 111.7C18.7 99.3 37.3 74.7 56.2 64.3C75 54 94 58 112.8 62C131.7 66 150.3 70 169 67C187.7 64 206.3 54 225 48.7C243.7 43.3 262.3 42.7 281.2 43.3C300 44 319 46 337.8 49.3C356.7 52.7 375.3 57.3 394 69.8C412.7 82.3 431.3 102.7 450 104C468.7 105.3 487.3 87.7 506.2 73.5C525 59.3 544 48.7 562.8 45.8C581.7 43 600.3 48 619 55.3C637.7 62.7 656.3 72.3 675 76.2C693.7 80 712.3 78 731.2 75.5C750 73 769 70 787.8 70C806.7 70 825.3 73 844 70.2C862.7 67.3 881.3 58.7 890.7 54.3L900 50L900 0L890.7 0C881.3 0 862.7 0 844 0C825.3 0 806.7 0 787.8 0C769 0 750 0 731.2 0C712.3 0 693.7 0 675 0C656.3 0 637.7 0 619 0C600.3 0 581.7 0 562.8 0C544 0 525 0 506.2 0C487.3 0 468.7 0 450 0C431.3 0 412.7 0 394 0C375.3 0 356.7 0 337.8 0C319 0 300 0 281.2 0C262.3 0 243.7 0 225 0C206.3 0 187.7 0 169 0C150.3 0 131.7 0 112.8 0C94 0 75 0 56.2 0C37.3 0 18.7 0 9.3 0L0 0Z" fill="#90372e"></path><path d="M0 78L9.3 72C18.7 66 37.3 54 56.2 53.7C75 53.3 94 64.7 112.8 63C131.7 61.3 150.3 46.7 169 41.7C187.7 36.7 206.3 41.3 225 44.8C243.7 48.3 262.3 50.7 281.2 56.5C300 62.3 319 71.7 337.8 70.3C356.7 69 375.3 57 394 58.5C412.7 60 431.3 75 450 83.3C468.7 91.7 487.3 93.3 506.2 90.3C525 87.3 544 79.7 562.8 74.8C581.7 70 600.3 68 619 63C637.7 58 656.3 50 675 44.5C693.7 39 712.3 36 731.2 39.5C750 43 769 53 787.8 64.3C806.7 75.7 825.3 88.3 844 90.5C862.7 92.7 881.3 84.3 890.7 80.2L900 76L900 0L890.7 0C881.3 0 862.7 0 844 0C825.3 0 806.7 0 787.8 0C769 0 750 0 731.2 0C712.3 0 693.7 0 675 0C656.3 0 637.7 0 619 0C600.3 0 581.7 0 562.8 0C544 0 525 0 506.2 0C487.3 0 468.7 0 450 0C431.3 0 412.7 0 394 0C375.3 0 356.7 0 337.8 0C319 0 300 0 281.2 0C262.3 0 243.7 0 225 0C206.3 0 187.7 0 169 0C150.3 0 131.7 0 112.8 0C94 0 75 0 56.2 0C37.3 0 18.7 0 9.3 0L0 0Z" fill="#a23930"></path><path d="M0 30L9.3 35.3C18.7 40.7 37.3 51.3 56.2 56.5C75 61.7 94 61.3 112.8 57.2C131.7 53 150.3 45 169 47.8C187.7 50.7 206.3 64.3 225 69.3C243.7 74.3 262.3 70.7 281.2 70.8C300 71 319 75 337.8 75.8C356.7 76.7 375.3 74.3 394 68.8C412.7 63.3 431.3 54.7 450 49.3C468.7 44 487.3 42 506.2 42.2C525 42.3 544 44.7 562.8 47.8C581.7 51 600.3 55 619 60.5C637.7 66 656.3 73 675 72.5C693.7 72 712.3 64 731.2 57.8C750 51.7 769 47.3 787.8 47.3C806.7 47.3 825.3 51.7 844 58.3C862.7 65 881.3 74 890.7 78.5L900 83L900 0L890.7 0C881.3 0 862.7 0 844 0C825.3 0 806.7 0 787.8 0C769 0 750 0 731.2 0C712.3 0 693.7 0 675 0C656.3 0 637.7 0 619 0C600.3 0 581.7 0 562.8 0C544 0 525 0 506.2 0C487.3 0 468.7 0 450 0C431.3 0 412.7 0 394 0C375.3 0 356.7 0 337.8 0C319 0 300 0 281.2 0C262.3 0 243.7 0 225 0C206.3 0 187.7 0 169 0C150.3 0 131.7 0 112.8 0C94 0 75 0 56.2 0C37.3 0 18.7 0 9.3 0L0 0Z" fill="#b63b30"></path><path d="M0 29L9.3 27.7C18.7 26.3 37.3 23.7 56.2 26.5C75 29.3 94 37.7 112.8 38.8C131.7 40 150.3 34 169 35.8C187.7 37.7 206.3 47.3 225 49.3C243.7 51.3 262.3 45.7 281.2 44C300 42.3 319 44.7 337.8 46.5C356.7 48.3 375.3 49.7 394 49.3C412.7 49 431.3 47 450 40.8C468.7 34.7 487.3 24.3 506.2 19C525 13.7 544 13.3 562.8 13.3C581.7 13.3 600.3 13.7 619 20.2C637.7 26.7 656.3 39.3 675 43.5C693.7 47.7 712.3 43.3 731.2 39.2C750 35 769 31 787.8 28.5C806.7 26 825.3 25 844 26.7C862.7 28.3 881.3 32.7 890.7 34.8L900 37L900 0L890.7 0C881.3 0 862.7 0 844 0C825.3 0 806.7 0 787.8 0C769 0 750 0 731.2 0C712.3 0 693.7 0 675 0C656.3 0 637.7 0 619 0C600.3 0 581.7 0 562.8 0C544 0 525 0 506.2 0C487.3 0 468.7 0 450 0C431.3 0 412.7 0 394 0C375.3 0 356.7 0 337.8 0C319 0 300 0 281.2 0C262.3 0 243.7 0 225 0C206.3 0 187.7 0 169 0C150.3 0 131.7 0 112.8 0C94 0 75 0 56.2 0C37.3 0 18.7 0 9.3 0L0 0Z" fill="#c93d31"></path><path d="M0 37L9.3 32.2C18.7 27.3 37.3 17.7 56.2 16.2C75 14.7 94 21.3 112.8 21.2C131.7 21 150.3 14 169 13C187.7 12 206.3 17 225 16.5C243.7 16 262.3 10 281.2 8.5C300 7 319 10 337.8 15.3C356.7 20.7 375.3 28.3 394 31.5C412.7 34.7 431.3 33.3 450 33.3C468.7 33.3 487.3 34.7 506.2 33.7C525 32.7 544 29.3 562.8 26.8C581.7 24.3 600.3 22.7 619 24.2C637.7 25.7 656.3 30.3 675 31.2C693.7 32 712.3 29 731.2 28.2C750 27.3 769 28.7 787.8 27.2C806.7 25.7 825.3 21.3 844 21.7C862.7 22 881.3 27 890.7 29.5L900 32L900 0L890.7 0C881.3 0 862.7 0 844 0C825.3 0 806.7 0 787.8 0C769 0 750 0 731.2 0C712.3 0 693.7 0 675 0C656.3 0 637.7 0 619 0C600.3 0 581.7 0 562.8 0C544 0 525 0 506.2 0C487.3 0 468.7 0 450 0C431.3 0 412.7 0 394 0C375.3 0 356.7 0 337.8 0C319 0 300 0 281.2 0C262.3 0 243.7 0 225 0C206.3 0 187.7 0 169 0C150.3 0 131.7 0 112.8 0C94 0 75 0 56.2 0C37.3 0 18.7 0 9.3 0L0 0Z" fill="#dd3f31"></path></svg>