<svg id="visual" viewBox="0 0 900 200" width="900" height="200" xmlns="http://www.w3.org/2000/svg" xmlns:xlink="http://www.w3.org/1999/xlink" version="1.1"><rect x="0" y="0" width="900" height="200" fill="#ff0066"></rect><path d="M0 36L11.5 48.2C23 60.3 46 84.7 69 93.7C92 102.7 115 96.3 138.2 91.5C161.3 86.7 184.7 83.3 207.8 74C231 64.7 254 49.3 277 48.8C300 48.3 323 62.7 346 69.5C369 76.3 392 75.7 415.2 68.8C438.3 62 461.7 49 484.8 42.3C508 35.7 531 35.3 554 42C577 48.7 600 62.3 623 73.5C646 84.7 669 93.3 692.2 92.2C715.3 91 738.7 80 761.8 72.3C785 64.7 808 60.3 831 56.7C854 53 877 50 888.5 48.5L900 47L900 201L888.5 201C877 201 854 201 831 201C808 201 785 201 761.8 201C738.7 201 715.3 201 692.2 201C669 201 646 201 623 201C600 201 577 201 554 201C531 201 508 201 484.8 201C461.7 201 438.3 201 415.2 201C392 201 369 201 346 201C323 201 300 201 277 201C254 201 231 201 207.8 201C184.7 201 161.3 201 138.2 201C115 201 92 201 69 201C46 201 23 201 11.5 201L0 201Z" fill="#d939a6"></path><path d="M0 54L11.5 69.2C23 84.3 46 114.7 69 127C92 139.3 115 133.7 138.2 121C161.3 108.3 184.7 88.7 207.8 82.7C231 76.7 254 84.3 277 85.8C300 87.3 323 82.7 346 86.2C369 89.7 392 101.3 415.2 111.2C438.3 121 461.7 129 484.8 131.3C508 133.7 531 130.3 554 128.2C577 126 600 125 623 118.2C646 111.3 669 98.7 692.2 97.3C715.3 96 738.7 106 761.8 106.2C785 106.3 808 96.7 831 98.5C854 100.3 877 113.7 888.5 120.3L900 127L900 201L888.5 201C877 201 854 201 831 201C808 201 785 201 761.8 201C738.7 201 715.3 201 692.2 201C669 201 646 201 623 201C600 201 577 201 554 201C531 201 508 201 484.8 201C461.7 201 438.3 201 415.2 201C392 201 369 201 346 201C323 201 300 201 277 201C254 201 231 201 207.8 201C184.7 201 161.3 201 138.2 201C115 201 92 201 69 201C46 201 23 201 11.5 201L0 201Z" fill="#7f4698"></path><path d="M0 168L11.5 166.8C23 165.7 46 163.3 69 157.8C92 152.3 115 143.7 138.2 135.8C161.3 128 184.7 121 207.8 122.8C231 124.7 254 135.3 277 133.8C300 132.3 323 118.7 346 114.3C369 110 392 115 415.2 112.8C438.3 110.7 461.7 101.3 484.8 107.2C508 113 531 134 554 141.5C577 149 600 143 623 134.3C646 125.7 669 114.3 692.2 113.3C715.3 112.3 738.7 121.7 761.8 130.7C785 139.7 808 148.3 831 149.5C854 150.7 877 144.3 888.5 141.2L900 138L900 201L888.5 201C877 201 854 201 831 201C808 201 785 201 761.8 201C738.7 201 715.3 201 692.2 201C669 201 646 201 623 201C600 201 577 201 554 201C531 201 508 201 484.8 201C461.7 201 438.3 201 415.2 201C392 201 369 201 346 201C323 201 300 201 277 201C254 201 231 201 207.8 201C184.7 201 161.3 201 138.2 201C115 201 92 201 69 201C46 201 23 201 11.5 201L0 201Z" fill="#393d6c"></path><path d="M0 169L11.5 172.5C23 176 46 183 69 179.7C92 176.3 115 162.7 138.2 158.5C161.3 154.3 184.7 159.7 207.8 158.7C231 157.7 254 150.3 277 149.8C300 149.3 323 155.7 346 160C369 164.3 392 166.7 415.2 165.3C438.3 164 461.7 159 484.8 162.3C508 165.7 531 177.3 554 174.5C577 171.7 600 154.3 623 148.2C646 142 669 147 692.2 151.8C715.3 156.7 738.7 161.3 761.8 165.3C785 169.3 808 172.7 831 167.7C854 162.7 877 149.3 888.5 142.7L900 136L900 201L888.5 201C877 201 854 201 831 201C808 201 785 201 761.8 201C738.7 201 715.3 201 692.2 201C669 201 646 201 623 201C600 201 577 201 554 201C531 201 508 201 484.8 201C461.7 201 438.3 201 415.2 201C392 201 369 201 346 201C323 201 300 201 277 201C254 201 231 201 207.8 201C184.7 201 161.3 201 138.2 201C115 201 92 201 69 201C46 201 23 201 11.5 201L0 201Z" fill="#202731"></path></svg>